<svg width="26" height="25" viewBox="0 0 26 25" fill="none" xmlns="http://www.w3.org/2000/svg">
<path d="M22.0488 19.2683C20.9268 20.2602 19.3008 20.9715 17.1707 21.4024C15.0407 21.8333 12.8455 21.9593 10.5854 21.7805L6.29268 25V20.9756C4.87805 20.5366 3.77236 19.9675 2.97561 19.2683C2.03252 18.439 1.30081 17.248 0.780488 15.6951C0.260163 14.1423 0 12.5569 0 10.939C0 9.32114 0.260163 7.73577 0.780488 6.18293C1.30081 4.63008 2.03659 3.43496 2.9878 2.59756C3.93902 1.76016 5.30081 1.11789 7.07317 0.670732C8.84553 0.223577 10.6585 0 12.5122 0C14.3659 0 16.1789 0.223577 17.9512 0.670732C19.7236 1.11789 21.0854 1.76016 22.0366 2.59756C22.9878 3.43496 23.7236 4.63008 24.2439 6.18293C24.7642 7.73577 25.0244 9.32114 25.0244 10.939C25.0244 12.5569 24.7642 14.1423 24.2439 15.6951C23.7236 17.248 22.9919 18.439 22.0488 19.2683ZM15.5854 13.2927L17.1707 13.561C17.0407 11.6098 16.2886 9.94309 14.9146 8.56098C13.5407 7.17886 11.878 6.42276 9.92683 6.29268L10.1951 7.87805C11.5935 8.05691 12.7967 8.65041 13.8049 9.65854C14.813 10.6667 15.4065 11.878 15.5854 13.2927ZM10.4634 9.51219L10.7561 11.2683C11.4065 11.5935 11.8862 12.0732 12.1951 12.7073L13.9512 13C13.7561 12.1382 13.3415 11.3943 12.7073 10.7683C12.0732 10.1423 11.3252 9.72358 10.4634 9.51219ZM7.85366 10.9512V9.39024C7.85366 9.11382 7.75203 8.8374 7.54878 8.56098C7.34553 8.28455 7.13008 8.08537 6.90244 7.96341C6.6748 7.84146 6.50407 7.82927 6.39024 7.92683L5.26829 9.07317C4.63415 9.70732 4.54065 10.6951 4.9878 12.0366C5.43496 13.378 6.28862 14.6789 7.54878 15.939C8.80894 17.1992 10.1098 18.0528 11.4512 18.5C12.7927 18.9472 13.7724 18.8537 14.3902 18.2195L15.5366 17.0732C15.6504 16.9756 15.6463 16.8089 15.5244 16.5732C15.4024 16.3374 15.2033 16.122 14.9268 15.9268C14.6504 15.7317 14.374 15.6341 14.0976 15.6341H12.5366L11.6341 16.4146C10.9187 16.2195 10.0285 15.5894 8.96342 14.5244C7.89837 13.4593 7.26829 12.561 7.07317 11.8293L7.85366 10.9512ZM9.41463 3.14634L9.65854 4.73171C11.2846 4.76423 12.7886 5.19106 14.1707 6.0122C15.5528 6.83333 16.6504 7.93089 17.4634 9.30488C18.2764 10.6789 18.7073 12.1789 18.7561 13.8049L20.3415 14.0732C20.3415 12.5935 20.0528 11.1789 19.4756 9.82927C18.8984 8.47967 18.122 7.31707 17.1463 6.34146C16.1707 5.36585 15.0081 4.58943 13.6585 4.0122C12.3089 3.43496 10.8943 3.14634 9.41463 3.14634Z" fill="black"/>
</svg>
