<svg width="26" height="25" viewBox="0 0 26 25" fill="none" xmlns="http://www.w3.org/2000/svg">
<path d="M23.4372 5.7813C19.6872 5.30332e-05 12.031 -1.7187 6.0935 1.87505C0.312247 5.4688 -1.56275 13.2813 2.18725 19.0626L2.49975 19.5313L1.24975 24.2188L5.93725 22.9688L6.406 23.2813C8.43725 24.3751 10.6247 25.0001 12.8122 25.0001C15.156 25.0001 17.4997 24.3751 19.531 23.1251C25.3123 19.3751 27.031 11.7188 23.4372 5.7813ZM20.156 17.8126C19.531 18.7501 18.7498 19.3751 17.656 19.5313C17.031 19.5313 16.2497 19.8438 13.1247 18.5938C10.4685 17.3438 8.281 15.3126 6.7185 12.9688C5.781 11.8751 5.31225 10.4688 5.156 9.06255C5.156 7.81255 5.62475 6.7188 6.406 5.93755C6.7185 5.62505 7.031 5.4688 7.3435 5.4688H8.12475C8.43725 5.4688 8.74975 5.4688 8.906 6.0938C9.2185 6.87505 9.99975 8.75005 9.99975 8.9063C10.156 9.06255 10.156 9.37505 9.99975 9.5313C10.156 9.8438 9.99975 10.1563 9.8435 10.3126C9.68725 10.4688 9.531 10.7813 9.37475 10.9376C9.06225 11.0938 8.906 11.4063 9.06225 11.7188C9.68725 12.6563 10.4685 13.5938 11.2497 14.3751C12.1872 15.1563 13.1247 15.7813 14.2185 16.2501C14.531 16.4063 14.8435 16.4063 14.9997 16.0938C15.156 15.7813 15.9372 15.0001 16.2497 14.6876C16.5622 14.3751 16.7185 14.3751 17.031 14.5313L19.531 15.7813C19.8435 15.9376 20.156 16.0938 20.3122 16.2501C20.4685 16.7188 20.4685 17.3438 20.156 17.8126Z" fill="black"/>
</svg>
