<svg class="lds-spinner" width="200px" height="200px" xmlns="http://www.w3.org/2000/svg" xmlns:xlink="http://www.w3.org/1999/xlink" viewBox="0 0 100 100" preserveAspectRatio="xMidYMid"><g transform="rotate(0 50 50)">
  <rect x="49.5" y="35" rx="2.475" ry="1.75" width="1" height="10" fill="#555">
    <animate attributeName="opacity" values="1;0" keyTimes="0;1" dur="0.4s" begin="-0.3666666666666667s" repeatCount="indefinite"/>
  </rect>
</g><g transform="rotate(30 50 50)">
  <rect x="49.5" y="35" rx="2.475" ry="1.75" width="1" height="10" fill="#555">
    <animate attributeName="opacity" values="1;0" keyTimes="0;1" dur="0.4s" begin="-0.3333333333333333s" repeatCount="indefinite"/>
  </rect>
</g><g transform="rotate(60 50 50)">
  <rect x="49.5" y="35" rx="2.475" ry="1.75" width="1" height="10" fill="#555">
    <animate attributeName="opacity" values="1;0" keyTimes="0;1" dur="0.4s" begin="-0.3s" repeatCount="indefinite"/>
  </rect>
</g><g transform="rotate(90 50 50)">
  <rect x="49.5" y="35" rx="2.475" ry="1.75" width="1" height="10" fill="#555">
    <animate attributeName="opacity" values="1;0" keyTimes="0;1" dur="0.4s" begin="-0.26666666666666666s" repeatCount="indefinite"/>
  </rect>
</g><g transform="rotate(120 50 50)">
  <rect x="49.5" y="35" rx="2.475" ry="1.75" width="1" height="10" fill="#555">
    <animate attributeName="opacity" values="1;0" keyTimes="0;1" dur="0.4s" begin="-0.23333333333333336s" repeatCount="indefinite"/>
  </rect>
</g><g transform="rotate(150 50 50)">
  <rect x="49.5" y="35" rx="2.475" ry="1.75" width="1" height="10" fill="#555">
    <animate attributeName="opacity" values="1;0" keyTimes="0;1" dur="0.4s" begin="-0.20000000000000004s" repeatCount="indefinite"/>
  </rect>
</g><g transform="rotate(180 50 50)">
  <rect x="49.5" y="35" rx="2.475" ry="1.75" width="1" height="10" fill="#555">
    <animate attributeName="opacity" values="1;0" keyTimes="0;1" dur="0.4s" begin="-0.16666666666666666s" repeatCount="indefinite"/>
  </rect>
</g><g transform="rotate(210 50 50)">
  <rect x="49.5" y="35" rx="2.475" ry="1.75" width="1" height="10" fill="#555">
    <animate attributeName="opacity" values="1;0" keyTimes="0;1" dur="0.4s" begin="-0.13333333333333333s" repeatCount="indefinite"/>
  </rect>
</g><g transform="rotate(240 50 50)">
  <rect x="49.5" y="35" rx="2.475" ry="1.75" width="1" height="10" fill="#555">
    <animate attributeName="opacity" values="1;0" keyTimes="0;1" dur="0.4s" begin="-0.10000000000000002s" repeatCount="indefinite"/>
  </rect>
</g><g transform="rotate(270 50 50)">
  <rect x="49.5" y="35" rx="2.475" ry="1.75" width="1" height="10" fill="#555">
    <animate attributeName="opacity" values="1;0" keyTimes="0;1" dur="0.4s" begin="-0.06666666666666667s" repeatCount="indefinite"/>
  </rect>
</g><g transform="rotate(300 50 50)">
  <rect x="49.5" y="35" rx="2.475" ry="1.75" width="1" height="10" fill="#555">
    <animate attributeName="opacity" values="1;0" keyTimes="0;1" dur="0.4s" begin="-0.03333333333333333s" repeatCount="indefinite"/>
  </rect>
</g><g transform="rotate(330 50 50)">
  <rect x="49.5" y="35" rx="2.475" ry="1.75" width="1" height="10" fill="#555">
    <animate attributeName="opacity" values="1;0" keyTimes="0;1" dur="0.4s" begin="0s" repeatCount="indefinite"/>
  </rect>
</g></svg>