<svg width="10" height="16" viewBox="0 0 10 16" fill="none" xmlns="http://www.w3.org/2000/svg">
<path fill-rule="evenodd" clip-rule="evenodd" d="M0.367094 8.809C0.250731 8.70285 0.158409 8.57676 0.0954169 8.43794C0.0324248 8.29912 0 8.1503 0 8C0 7.8497 0.0324248 7.70088 0.0954169 7.56206C0.158409 7.42324 0.250731 7.29714 0.367094 7.191L7.86423 0.335096C8.09886 0.120537 8.41708 0 8.7489 0C9.08071 0 9.39893 0.120537 9.63356 0.335096C9.86819 0.549656 10 0.840661 10 1.14409C10 1.44753 9.86819 1.73853 9.63356 1.95309L3.01858 8L9.63356 14.0469C9.86819 14.2615 10 14.5525 10 14.8559C10 15.1593 9.86819 15.4503 9.63356 15.6649C9.39893 15.8795 9.08071 16 8.7489 16C8.41708 16 8.09886 15.8795 7.86423 15.6649L0.367094 8.809Z" fill="white"/>
</svg>
