<svg width="10" height="16" viewBox="0 0 10 16" fill="none" xmlns="http://www.w3.org/2000/svg">
<path fill-rule="evenodd" clip-rule="evenodd" d="M9.63291 8.809C9.74927 8.70285 9.84159 8.57676 9.90458 8.43794C9.96758 8.29912 10 8.1503 10 8C10 7.8497 9.96758 7.70088 9.90458 7.56206C9.84159 7.42324 9.74927 7.29714 9.63291 7.191L2.13577 0.335096C1.90114 0.120537 1.58292 0 1.2511 0C0.91929 0 0.601067 0.120537 0.36644 0.335096C0.131812 0.549656 0 0.840661 0 1.14409C0 1.44753 0.131812 1.73853 0.36644 1.95309L6.98142 8L0.36644 14.0469C0.131812 14.2615 0 14.5525 0 14.8559C0 15.1593 0.131812 15.4503 0.36644 15.6649C0.601067 15.8795 0.91929 16 1.2511 16C1.58292 16 1.90114 15.8795 2.13577 15.6649L9.63291 8.809Z" fill="white"/>
</svg>
